{
  "accessors": [
    {
      "bufferView": 2,
      "componentType": 5126,
      "count": 16,
      "max": [
        93.5,
        98.53125,
        96.0
      ],
      "min": [
        -103.5625,
        -278.53118896484375,
        79.89642333984375
      ],
      "type": "VEC3"
    },
    {
      "bufferView": 2,
      "byteOffset": 192,
      "componentType": 5126,
      "count": 16,
      "max": [
        0.0,
        0.0,
        1.0
      ],
      "min": [
        0.0,
        0.0,
        -1.0
      ],
      "type": "VEC3"
    },
    {
      "bufferView": 3,
      "componentType": 5126,
      "count": 16,
      "max": [
        1.2891706461334483e-16,
        1.0,
        0.0,
        1.0
      ],
      "min": [
        -1.0,
        0.0,
        0.0,
        -1.0
      ],
      "type": "VEC4"
    },
    {
      "bufferView": 1,
      "componentType": 5126,
      "count": 16,
      "max": [
        2.1428470611572266,
        2.1428470611572266
      ],
      "min": [
        -4.6216301359011766e-17,
        -1.8543370218650863e-15
      ],
      "type": "VEC2"
    },
    {
      "bufferView": 0,
      "componentType": 5125,
      "count": 24,
      "type": "SCALAR"
    },
    {
      "bufferView": 2,
      "byteOffset": 384,
      "componentType": 5126,
      "count": 48,
      "max": [
        -8.804840087890625,
        19.80961036682129,
        94.125
      ],
      "min": [
        -10.304840087890625,
        -27.56538963317871,
        92.625
      ],
      "type": "VEC3"
    },
    {
      "bufferView": 2,
      "byteOffset": 960,
      "componentType": 5126,
      "count": 48,
      "max": [
        1.0,
        0.0,
        1.0
      ],
      "min": [
        -1.0,
        0.0,
        -1.0
      ],
      "type": "VEC3"
    },
    {
      "bufferView": 0,
      "byteOffset": 96,
      "componentType": 5125,
      "count": 144,
      "type": "SCALAR"
    },
    {
      "bufferView": 2,
      "byteOffset": 1536,
      "componentType": 5126,
      "count": 292,
      "max": [
        -7.454840183258057,
        20.12211036682129,
        96.0
      ],
      "min": [
        -11.654840469360352,
        -27.87788963317871,
        92.0
      ],
      "type": "VEC3"
    },
    {
      "bufferView": 2,
      "byteOffset": 5040,
      "componentType": 5126,
      "count": 292,
      "max": [
        1.0,
        1.0,
        1.0
      ],
      "min": [
        -1.0,
        -1.0,
        -1.0
      ],
      "type": "VEC3"
    },
    {
      "bufferView": 0,
      "byteOffset": 672,
      "componentType": 5125,
      "count": 798,
      "type": "SCALAR"
    },
    {
      "bufferView": 2,
      "byteOffset": 8544,
      "componentType": 5126,
      "count": 32,
      "max": [
        94.5,
        99.53125,
        96.0
      ],
      "min": [
        -104.5625,
        -278.53118896484375,
        0.0
      ],
      "type": "VEC3"
    },
    {
      "bufferView": 2,
      "byteOffset": 8928,
      "componentType": 5126,
      "count": 32,
      "max": [
        1.0,
        1.0,
        0.0
      ],
      "min": [
        -1.0,
        -1.0,
        0.0
      ],
      "type": "VEC3"
    },
    {
      "bufferView": 3,
      "byteOffset": 256,
      "componentType": 5126,
      "count": 32,
      "max": [
        1.0,
        1.0,
        0.0,
        1.0
      ],
      "min": [
        -1.0,
        -1.0,
        0.0,
        -1.0
      ],
      "type": "VEC4"
    },
    {
      "bufferView": 1,
      "byteOffset": 128,
      "componentType": 5126,
      "count": 32,
      "max": [
        2.9273900985717773,
        1.4117649793624878
      ],
      "min": [
        -5.85477876663208,
        0.0
      ],
      "type": "VEC2"
    },
    {
      "bufferView": 0,
      "byteOffset": 3864,
      "componentType": 5125,
      "count": 48,
      "type": "SCALAR"
    },
    {
      "bufferView": 2,
      "byteOffset": 9312,
      "componentType": 5126,
      "count": 244,
      "max": [
        -7.454840183258057,
        20.12211036682129,
        96.0
      ],
      "min": [
        -11.654840469360352,
        -27.87788963317871,
        92.0
      ],
      "type": "VEC3"
    },
    {
      "bufferView": 2,
      "byteOffset": 12240,
      "componentType": 5126,
      "count": 244,
      "max": [
        1.0,
        1.0,
        0.0
      ],
      "min": [
        -1.0,
        -1.0,
        -1.0
      ],
      "type": "VEC3"
    },
    {
      "bufferView": 0,
      "byteOffset": 4056,
      "componentType": 5125,
      "count": 654,
      "type": "SCALAR"
    },
    {
      "bufferView": 2,
      "byteOffset": 15168,
      "componentType": 5126,
      "count": 204,
      "max": [
        93.5,
        -98.40619659423828,
        96.0
      ],
      "min": [
        -103.5625,
        -99.21869659423828,
        -2.366562026962461e-30
      ],
      "type": "VEC3"
    },
    {
      "bufferView": 2,
      "byteOffset": 17616,
      "componentType": 5126,
      "count": 204,
      "max": [
        1.0,
        1.0,
        1.0
      ],
      "min": [
        -1.0,
        -1.0,
        -1.0
      ],
      "type": "VEC3"
    },
    {
      "bufferView": 3,
      "byteOffset": 768,
      "componentType": 5126,
      "count": 204,
      "max": [
        0.0,
        1.0,
        1.5451215062967094e-07,
        1.0
      ],
      "min": [
        -1.0,
        -1.0,
        -1.1045419512356602e-07,
        -1.0
      ],
      "type": "VEC4"
    },
    {
      "bufferView": 1,
      "byteOffset": 384,
      "componentType": 5126,
      "count": 204,
      "max": [
        0.9997143745422363,
        1.0
      ],
      "min": [
        0.0,
        -6.573886917037172e-32
      ],
      "type": "VEC2"
    },
    {
      "bufferView": 0,
      "byteOffset": 6672,
      "componentType": 5125,
      "count": 396,
      "type": "SCALAR"
    },
    {
      "bufferView": 2,
      "byteOffset": 20064,
      "componentType": 5126,
      "count": 430,
      "max": [
        93.5,
        99.03130340576172,
        96.0
      ],
      "min": [
        -103.5625,
        98.53130340576172,
        2.3665631554370377e-30
      ],
      "type": "VEC3"
    },
    {
      "bufferView": 2,
      "byteOffset": 25224,
      "componentType": 5126,
      "count": 430,
      "max": [
        0.9992150068283081,
        1.0,
        0.9981014132499695
      ],
      "min": [
        -0.9998325109481812,
        -1.0,
        -0.9999691247940063
      ],
      "type": "VEC3"
    },
    {
      "bufferView": 3,
      "byteOffset": 4032,
      "componentType": 5126,
      "count": 430,
      "max": [
        1.0,
        1.0,
        0.019205108284950256,
        1.0
      ],
      "min": [
        -9.7250584858218e-31,
        -1.0,
        -0.07545414566993713,
        -1.0
      ],
      "type": "VEC4"
    },
    {
      "bufferView": 1,
      "byteOffset": 2016,
      "componentType": 5126,
      "count": 430,
      "max": [
        1.0277750492095947,
        1.050781011581421
      ],
      "min": [
        0.0,
        -0.7164565920829773
      ],
      "type": "VEC2"
    },
    {
      "bufferView": 0,
      "byteOffset": 8256,
      "componentType": 5125,
      "count": 888,
      "type": "SCALAR"
    },
    {
      "bufferView": 2,
      "byteOffset": 30384,
      "componentType": 5126,
      "count": 346,
      "max": [
        94.0,
        99.03130340576172,
        78.60688018798828
      ],
      "min": [
        -104.0625,
        -44.567806243896484,
        8.567473411560059
      ],
      "type": "VEC3"
    },
    {
      "bufferView": 2,
      "byteOffset": 34536,
      "componentType": 5126,
      "count": 346,
      "max": [
        0.9998325109481812,
        0.9999085068702698,
        0.9999843239784241
      ],
      "min": [
        -0.9992150068283081,
        -0.9993959069252014,
        -0.9985523223876953
      ],
      "type": "VEC3"
    },
    {
      "bufferView": 0,
      "byteOffset": 11808,
      "componentType": 5125,
      "count": 972,
      "type": "SCALAR"
    },
    {
      "bufferView": 2,
      "byteOffset": 38688,
      "componentType": 5126,
      "count": 278,
      "max": [
        94.0,
        98.53130340576172,
        96.0
      ],
      "min": [
        6.2783966064453125,
        -278.53118896484375,
        -1.5772529292553676e-30
      ],
      "type": "VEC3"
    },
    {
      "bufferView": 2,
      "byteOffset": 42024,
      "componentType": 5126,
      "count": 278,
      "max": [
        1.0,
        0.9983859062194824,
        0.9985523223876953
      ],
      "min": [
        -1.0,
        -0.9999085068702698,
        -0.9999843239784241
      ],
      "type": "VEC3"
    },
    {
      "bufferView": 3,
      "byteOffset": 10912,
      "componentType": 5126,
      "count": 278,
      "max": [
        1.0,
        1.0,
        2.988248161273077e-05,
        1.0
      ],
      "min": [
        -1.0,
        -1.0,
        -6.77011048537679e-05,
        -1.0
      ],
      "type": "VEC4"
    },
    {
      "bufferView": 1,
      "byteOffset": 5456,
      "componentType": 5126,
      "count": 278,
      "max": [
        0.9997143745422363,
        1.0
      ],
      "min": [
        -2.220446049250313e-16,
        -0.5570576786994934
      ],
      "type": "VEC2"
    },
    {
      "bufferView": 0,
      "byteOffset": 15696,
      "componentType": 5125,
      "count": 564,
      "type": "SCALAR"
    },
    {
      "bufferView": 2,
      "byteOffset": 45360,
      "componentType": 5126,
      "count": 296,
      "max": [
        38.470306396484375,
        98.53130340576172,
        96.0
      ],
      "min": [
        -104.0625,
        -278.53118896484375,
        -2.366562026962461e-30
      ],
      "type": "VEC3"
    },
    {
      "bufferView": 2,
      "byteOffset": 48912,
      "componentType": 5126,
      "count": 296,
      "max": [
        1.0,
        0.9993959069252014,
        0.9960358738899231
      ],
      "min": [
        -1.0,
        -0.9993435144424438,
        -0.9991955757141113
      ],
      "type": "VEC3"
    },
    {
      "bufferView": 3,
      "byteOffset": 15360,
      "componentType": 5126,
      "count": 296,
      "max": [
        1.0,
        1.0,
        6.395426316885278e-05,
        1.0
      ],
      "min": [
        -1.0,
        -1.0,
        -2.4357117581530474e-05,
        -1.0
      ],
      "type": "VEC4"
    },
    {
      "bufferView": 1,
      "byteOffset": 7680,
      "componentType": 5126,
      "count": 296,
      "max": [
        1.0277750492095947,
        1.0
      ],
      "min": [
        -0.028060490265488625,
        -0.3812437951564789
      ],
      "type": "VEC2"
    },
    {
      "bufferView": 0,
      "byteOffset": 17952,
      "componentType": 5125,
      "count": 600,
      "type": "SCALAR"
    },
    {
      "bufferView": 2,
      "byteOffset": 52464,
      "componentType": 5126,
      "count": 26,
      "max": [
        93.5,
        98.53130340576172,
        4.73367888725851e-30
      ],
      "min": [
        -103.5625,
        -278.53118896484375,
        -2.366562026962461e-30
      ],
      "type": "VEC3"
    },
    {
      "bufferView": 2,
      "byteOffset": 52776,
      "componentType": 5126,
      "count": 26,
      "max": [
        1.0170380062050309e-32,
        4.41810286440526e-33,
        1.0
      ],
      "min": [
        -1.0170380062050309e-32,
        -4.41810286440526e-33,
        -1.0
      ],
      "type": "VEC3"
    },
    {
      "bufferView": 3,
      "byteOffset": 20096,
      "componentType": 5126,
      "count": 26,
      "max": [
        -1.0,
        0.00025236958754248917,
        -1.0170377857998401e-32,
        1.0
      ],
      "min": [
        -1.0,
        -2.820906388478761e-07,
        -1.0171497516367559e-32,
        -1.0
      ],
      "type": "VEC4"
    },
    {
      "bufferView": 1,
      "byteOffset": 10048,
      "componentType": 5126,
      "count": 26,
      "max": [
        1.0,
        1.9115999937057495
      ],
      "min": [
        -2.220446049250313e-16,
        0.0
      ],
      "type": "VEC2"
    },
    {
      "bufferView": 0,
      "byteOffset": 20352,
      "componentType": 5125,
      "count": 66,
      "type": "SCALAR"
    }
  ],
  "asset": {
    "extras": {
      "author": "jimbogies (https://sketchfab.com/jimbogies)",
      "license": "CC-BY-4.0 (http://creativecommons.org/licenses/by/4.0/)",
      "source": "https://sketchfab.com/3d-models/vandalized-room-dbdecb3dae5d4898872880a3a95dcec8",
      "title": "Vandalized Room"
    },
    "generator": "Sketchfab-12.66.0",
    "version": "2.0"
  },
  "bufferViews": [
    {
      "buffer": 0,
      "byteLength": 20616,
      "name": "floatBufferViews",
      "target": 34963
    },
    {
      "buffer": 0,
      "byteLength": 10256,
      "byteOffset": 20616,
      "byteStride": 8,
      "name": "floatBufferViews",
      "target": 34962
    },
    {
      "buffer": 0,
      "byteLength": 53088,
      "byteOffset": 30872,
      "byteStride": 12,
      "name": "floatBufferViews",
      "target": 34962
    },
    {
      "buffer": 0,
      "byteLength": 20512,
      "byteOffset": 83960,
      "byteStride": 16,
      "name": "floatBufferViews",
      "target": 34962
    }
  ],
  "buffers": [
    {
      "byteLength": 104472,
      "uri": "scene.bin"
    }
  ],
  "images": [
    {
      "uri": "textures/Ceiling_baseColor.jpeg"
    },
    {
      "uri": "textures/Ceiling_metallicRoughness.png"
    },
    {
      "uri": "textures/Ceiling_normal.jpeg"
    },
    {
      "uri": "textures/Brick_baseColor.jpeg"
    },
    {
      "uri": "textures/Brick_metallicRoughness.png"
    },
    {
      "uri": "textures/Brick_normal.png"
    },
    {
      "uri": "textures/Wall01_basecolor_baseColor.jpeg"
    },
    {
      "uri": "textures/Wall01_basecolor_metallicRoughness.png"
    },
    {
      "uri": "textures/Wall01_basecolor_normal.png"
    },
    {
      "uri": "textures/Wall03_basecolor_baseColor.jpeg"
    },
    {
      "uri": "textures/Wall03_basecolor_metallicRoughness.png"
    },
    {
      "uri": "textures/Wall03_basecolor_normal.png"
    },
    {
      "uri": "textures/Wall04_basecolor_baseColor.jpeg"
    },
    {
      "uri": "textures/Wall02_basecolor_baseColor.jpeg"
    },
    {
      "uri": "textures/Tile01_baseColor.jpeg"
    },
    {
      "uri": "textures/Tile01_metallicRoughness.png"
    },
    {
      "uri": "textures/Tile01_normal.png"
    }
  ],
  "materials": [
    {
      "name": "Ceiling",
      "normalTexture": {
        "index": 2
      },
      "pbrMetallicRoughness": {
        "baseColorTexture": {
          "index": 0
        },
        "metallicFactor": 0.0,
        "metallicRoughnessTexture": {
          "index": 1
        }
      }
    },
    {
      "emissiveFactor": [
        0.6495063583070998,
        0.6848596460512767,
        0.72620757902694
      ],
      "name": "Light",
      "pbrMetallicRoughness": {
        "baseColorFactor": [
          0.8,
          1.0,
          1.0,
          1.0
        ],
        "metallicFactor": 0.0,
        "roughnessFactor": 0.6
      }
    },
    {
      "name": "material",
      "pbrMetallicRoughness": {
        "baseColorFactor": [
          0.643137,
          0.698039,
          0.733333,
          1.0
        ],
        "metallicFactor": 0.0,
        "roughnessFactor": 0.6
      }
    },
    {
      "name": "Brick",
      "normalTexture": {
        "index": 5
      },
      "pbrMetallicRoughness": {
        "baseColorTexture": {
          "index": 3
        },
        "metallicFactor": 0.0,
        "metallicRoughnessTexture": {
          "index": 4
        }
      }
    },
    {
      "name": "Fixture",
      "pbrMetallicRoughness": {
        "baseColorFactor": [
          0.776471,
          0.776471,
          0.776471,
          1.0
        ],
        "metallicFactor": 0.3421997458,
        "roughnessFactor": 0.0625117803
      }
    },
    {
      "name": "Wall01_basecolor",
      "normalTexture": {
        "index": 8
      },
      "pbrMetallicRoughness": {
        "baseColorTexture": {
          "index": 6
        },
        "metallicFactor": 0.0,
        "metallicRoughnessTexture": {
          "index": 7
        }
      }
    },
    {
      "name": "Wall03_basecolor",
      "normalTexture": {
        "index": 11
      },
      "pbrMetallicRoughness": {
        "baseColorTexture": {
          "index": 9
        },
        "metallicFactor": 0.0,
        "metallicRoughnessTexture": {
          "index": 10
        }
      }
    },
    {
      "name": "PlasterEdges",
      "pbrMetallicRoughness": {
        "baseColorFactor": [
          0.6831716577,
          0.6831716577,
          0.6831716577,
          1.0
        ],
        "metallicFactor": 0.0
      }
    },
    {
      "name": "Wall04_basecolor",
      "normalTexture": {
        "index": 11
      },
      "pbrMetallicRoughness": {
        "baseColorTexture": {
          "index": 12
        },
        "metallicFactor": 0.0,
        "metallicRoughnessTexture": {
          "index": 10
        }
      }
    },
    {
      "name": "Wall02_basecolor",
      "normalTexture": {
        "index": 11
      },
      "pbrMetallicRoughness": {
        "baseColorTexture": {
          "index": 13
        },
        "metallicFactor": 0.0,
        "metallicRoughnessTexture": {
          "index": 10
        }
      }
    },
    {
      "name": "Tile01",
      "normalTexture": {
        "index": 16,
        "scale": 0.646208404
      },
      "pbrMetallicRoughness": {
        "baseColorTexture": {
          "index": 14
        },
        "metallicFactor": 0.0,
        "metallicRoughnessTexture": {
          "index": 15
        }
      }
    }
  ],
  "meshes": [
    {
      "name": "Material2",
      "primitives": [
        {
          "attributes": {
            "NORMAL": 1,
            "POSITION": 0,
            "TANGENT": 2,
            "TEXCOORD_0": 3
          },
          "indices": 4,
          "material": 0,
          "mode": 4
        }
      ]
    },
    {
      "name": "Material2",
      "primitives": [
        {
          "attributes": {
            "NORMAL": 6,
            "POSITION": 5
          },
          "indices": 7,
          "material": 1,
          "mode": 4
        }
      ]
    },
    {
      "name": "Material3",
      "primitives": [
        {
          "attributes": {
            "NORMAL": 9,
            "POSITION": 8
          },
          "indices": 10,
          "material": 2,
          "mode": 4
        }
      ]
    },
    {
      "name": "Material2",
      "primitives": [
        {
          "attributes": {
            "NORMAL": 12,
            "POSITION": 11,
            "TANGENT": 13,
            "TEXCOORD_0": 14
          },
          "indices": 15,
          "material": 3,
          "mode": 4
        }
      ]
    },
    {
      "name": "Material3",
      "primitives": [
        {
          "attributes": {
            "NORMAL": 17,
            "POSITION": 16
          },
          "indices": 18,
          "material": 4,
          "mode": 4
        }
      ]
    },
    {
      "name": "Material2",
      "primitives": [
        {
          "attributes": {
            "NORMAL": 20,
            "POSITION": 19,
            "TANGENT": 21,
            "TEXCOORD_0": 22
          },
          "indices": 23,
          "material": 5,
          "mode": 4
        }
      ]
    },
    {
      "name": "Material3",
      "primitives": [
        {
          "attributes": {
            "NORMAL": 25,
            "POSITION": 24,
            "TANGENT": 26,
            "TEXCOORD_0": 27
          },
          "indices": 28,
          "material": 6,
          "mode": 4
        }
      ]
    },
    {
      "name": "Material2",
      "primitives": [
        {
          "attributes": {
            "NORMAL": 30,
            "POSITION": 29
          },
          "indices": 31,
          "material": 7,
          "mode": 4
        }
      ]
    },
    {
      "name": "Material3",
      "primitives": [
        {
          "attributes": {
            "NORMAL": 33,
            "POSITION": 32,
            "TANGENT": 34,
            "TEXCOORD_0": 35
          },
          "indices": 36,
          "material": 8,
          "mode": 4
        }
      ]
    },
    {
      "name": "Material3",
      "primitives": [
        {
          "attributes": {
            "NORMAL": 38,
            "POSITION": 37,
            "TANGENT": 39,
            "TEXCOORD_0": 40
          },
          "indices": 41,
          "material": 9,
          "mode": 4
        }
      ]
    },
    {
      "name": "Material2",
      "primitives": [
        {
          "attributes": {
            "NORMAL": 43,
            "POSITION": 42,
            "TANGENT": 44,
            "TEXCOORD_0": 45
          },
          "indices": 46,
          "material": 10,
          "mode": 4
        }
      ]
    }
  ],
  "nodes": [
    {
      "children": [
        1
      ],
      "matrix": [
        1.0,
        1.608122622957729e-16,
        1.6081226229577294e-16,
        0.0,
        1.6081226229577292e-16,
        3.828568672208042e-16,
        -1.0,
        0.0,
        -1.6081226229577292e-16,
        1.0,
        3.828568672208042e-16,
        0.0,
        2.220446049250313e-14,
        1.4210854715202007e-14,
        -1.4210854715202e-14,
        1.0
      ],
      "name": "Sketchfab_model"
    },
    {
      "children": [
        2,
        3,
        4,
        5,
        6,
        7,
        8,
        9,
        10,
        11,
        12,
        13
      ],
      "name": "Collada visual scene group"
    },
    {
      "mesh": 0,
      "name": "Material2"
    },
    {
      "mesh": 1,
      "name": "Material2"
    },
    {
      "mesh": 2,
      "name": "Material3"
    },
    {
      "mesh": 3,
      "name": "Material2"
    },
    {
      "mesh": 4,
      "name": "Material3"
    },
    {
      "mesh": 5,
      "name": "Material2"
    },
    {
      "mesh": 6,
      "name": "Material3"
    },
    {
      "mesh": 7,
      "name": "Material2"
    },
    {
      "mesh": 8,
      "name": "Material3"
    },
    {
      "mesh": 9,
      "name": "Material3"
    },
    {
      "mesh": 10,
      "name": "Material2"
    },
    {
      "children": [
        14,
        16
      ],
      "name": "SketchUp"
    },
    {
      "children": [
        15
      ],
      "matrix": [
        -0.9188002,
        -0.3947231,
        0.0,
        0.0,
        0.04409944,
        -0.1026506,
        0.9937394,
        0.0,
        -0.3922519,
        0.913048,
        0.1117225,
        0.0,
        -15.64423,
        79.14303,
        38.40194,
        1.0
      ],
      "name": "skp_camera_Last_Saved_SketchUp_View"
    },
    {
      "name": "ID1"
    },
    {
      "children": [
        17
      ],
      "matrix": [
        1.0,
        0.0,
        0.0,
        0.0,
        0.0,
        0.0,
        1.0,
        0.0,
        0.0,
        -1.0,
        0.0,
        0.0,
        171.2308,
        -175.3137,
        46.18273,
        1.0
      ],
      "name": "skp_camera_Scene_1"
    },
    {
      "name": "ID2"
    }
  ],
  "samplers": [
    {
      "magFilter": 9729,
      "minFilter": 9987,
      "wrapS": 10497,
      "wrapT": 10497
    }
  ],
  "scene": 0,
  "scenes": [
    {
      "name": "Sketchfab_Scene",
      "nodes": [
        0
      ]
    }
  ],
  "textures": [
    {
      "sampler": 0,
      "source": 0
    },
    {
      "sampler": 0,
      "source": 1
    },
    {
      "sampler": 0,
      "source": 2
    },
    {
      "sampler": 0,
      "source": 3
    },
    {
      "sampler": 0,
      "source": 4
    },
    {
      "sampler": 0,
      "source": 5
    },
    {
      "sampler": 0,
      "source": 6
    },
    {
      "sampler": 0,
      "source": 7
    },
    {
      "sampler": 0,
      "source": 8
    },
    {
      "sampler": 0,
      "source": 9
    },
    {
      "sampler": 0,
      "source": 10
    },
    {
      "sampler": 0,
      "source": 11
    },
    {
      "sampler": 0,
      "source": 12
    },
    {
      "sampler": 0,
      "source": 13
    },
    {
      "sampler": 0,
      "source": 14
    },
    {
      "sampler": 0,
      "source": 15
    },
    {
      "sampler": 0,
      "source": 16
    }
  ]
}
